<?xml version="1.0" encoding="UTF-8"?> <svg xmlns="http://www.w3.org/2000/svg" xmlns:xlink="http://www.w3.org/1999/xlink" version="1.1" id="Artwork" x="0px" y="0px" viewBox="280 0 800 283.5" style="enable-background:new 280 0 800 283.5;" xml:space="preserve"> <style type="text/css"> .st1{fill:#374151;} </style> <g> <path class="st1" d="M283.6,82h15.9c2.1,15.6,14.1,23.4,29.5,23.4c20.3,0,31.3-8.5,31.3-20.4c0-12.6-9.2-15.6-27.7-19.7l-14.4-3.2 c-18-3.9-31-13-31-30.3c0-18.3,18.3-31.9,41.5-31.9c24.2,0,40.7,12.7,44,31.6h-15.9c-3.6-13.2-14.2-18.8-28.1-18.8 c-14.5,0-26,7-26,17.6c0,10.9,7.4,14.5,25.1,18.5l14.4,3.2c23.1,5.1,33.6,13.3,33.6,31.3c0,20.6-18.6,34.9-46.8,34.9 C304.6,118.3,287.1,104.6,283.6,82z"></path> <path class="st1" d="M461.7,80.5h-61.3c1.2,17.6,10.1,26.9,23.6,26.9c11.8,0,18-5.4,21-14.5h15.1c-4.7,17.2-17.8,25.4-36.2,25.4 c-24.5,0-38.6-17.9-38.6-42.2c0-24.7,14.4-42.2,38.4-42.2c22.7,0,38.1,16,38.1,41C462,76.4,461.8,78.5,461.7,80.5z M400.6,69.3 h46.3c-0.9-14.5-9.7-24.5-23-24.5C411,44.8,402.4,53.1,400.6,69.3z"></path> <path class="st1" d="M490.9,53c3.6-11.4,11.7-19.1,26.6-19.1v14.7H513c-14.8,0-22.1,4.7-22.1,19.2v48.9H476V35.6h14.8V53z"></path> <path class="st1" d="M597.6,80.5h-61.3c1.2,17.6,10.1,26.9,23.6,26.9c11.8,0,18-5.4,21-14.5h15.1c-4.7,17.2-17.8,25.4-36.2,25.4 c-24.5,0-38.6-17.9-38.6-42.2c0-24.7,14.4-42.2,38.4-42.2c22.7,0,38.1,16,38.1,41C597.9,76.4,597.7,78.5,597.6,80.5z M536.5,69.3 h46.3c-0.9-14.5-9.7-24.5-23-24.5C546.9,44.8,538.3,53.1,536.5,69.3z"></path> <path class="st1" d="M680.3,66.1v0.3v50.2h-14.8v-48v-0.3c0-16.5-7.6-23.6-19.4-23.6s-19.4,7.3-19.4,23.9v48h-14.8V35.6h14.8v16.5 c3.6-9.5,11.5-18.2,25.4-18.2C670.5,33.9,680.3,48,680.3,66.1z"></path> <path class="st1" d="M756.9,1.7h14.8v115h-14.8V99c-5,11.6-16.5,19.4-28.6,19.4c-19.7,0-34.5-17.2-34.5-42.2 c0-25,15-42.2,34.5-42.2c15.1,0,24.8,10.4,28.6,21.3V1.7z M757.5,76.1c0-19.1-8.9-31.3-24.4-31.3s-24.2,12.3-24.2,31.3 s8.8,31.3,24.2,31.3S757.5,95.2,757.5,76.1z"></path> <path class="st1" d="M789.6,21.7v-20h16v20H789.6z M790.2,116.7V35.6h14.8v81.1L790.2,116.7L790.2,116.7z"></path> <path class="st1" d="M901.4,76.1c0,25-14.8,42.2-34.5,42.2c-12.1,0-23.6-7.7-28.6-19.4v47.4h-14.8V35.6h14.8v19.7 c3.8-10.9,13.5-21.3,28.6-21.3C886.4,33.9,901.4,51.2,901.4,76.1z M886.2,76.1c0-19.1-8.8-31.3-24.2-31.3s-24.4,12.3-24.4,31.3 s8.9,31.3,24.4,31.3S886.2,95.2,886.2,76.1z"></path> <path class="st1" d="M914.7,21.7v-20h16v20H914.7z M915.3,116.7V35.6h14.8v81.1L915.3,116.7L915.3,116.7z"></path> <path class="st1" d="M992.1,105.5v11.2h-10.6c-14.1,0-25.1-6.8-25.1-22.2v-0.3V46.8h-17.1V35.6h17.1V16.4h14.8v19.2h20.6v11.2 h-20.6v47.4v0.3c0,8.6,4.4,11.1,11.8,11.1L992.1,105.5L992.1,105.5z"></path> <path class="st1" d="M1063.7,35.6h15.4l-37.2,110.8h-15.4l13-38.6h-14.4L997,35.6h15.3l27.7,70.8L1063.7,35.6z"></path> <path class="st1" d="M283.7,196.4c0-35.4,22.7-59.2,53.7-59.2c26.3,0,45.1,16,51,39h-15.9c-5.5-15-16.6-26.2-35.1-26.2 c-22.9,0-37.8,19.1-37.8,46.3c0,27.4,15.7,46.3,37.4,46.3c18.6,0,30.7-9.7,36.5-26.3h15.9c-7.7,26-26.3,39.2-52.4,39.2 C306.7,255.5,283.7,231.9,283.7,196.4z"></path> <path class="st1" d="M471.1,201.7v0.3v51.9h-14.8v-16.6c-5.6,11.4-12.3,18.3-28,18.3c-15.1,0-27.2-11-27.2-26 c0-18.9,18.9-22.5,33.4-24.1l21.8-2.3v-1.4v-0.3c0-10.6-5.9-19.5-18.8-19.5c-11.3,0-17.7,7-18.8,14.7h-15.1 c1.8-15.3,14.8-25.6,33.9-25.6C462.1,171.1,471.1,186.5,471.1,201.7z M456.2,219.4v-6L440,215c-11.2,1.2-23.9,2.7-23.9,14.5 c0,10.4,8.2,16.2,17.5,16.2C448.7,245.7,456.2,233.9,456.2,219.4z"></path> <path class="st1" d="M566.9,213.3c0,25-14.8,42.2-34.5,42.2c-12.1,0-23.6-7.7-28.6-19.4v47.3H489V172.8h14.8v19.7 c3.8-10.9,13.5-21.3,28.6-21.3C551.9,171.1,566.9,188.4,566.9,213.3z M551.8,213.3c0-19.1-8.8-31.3-24.2-31.3s-24.4,12.3-24.4,31.3 s8.9,31.3,24.4,31.3C543,244.6,551.8,232.4,551.8,213.3z"></path> <path class="st1" d="M580.3,158.9v-20h16v20H580.3z M580.9,253.9v-81.1h14.8v81.1H580.9z"></path> <path class="st1" d="M660.8,242.7v11.2h-10.6c-14.1,0-25.1-6.8-25.1-22.2v-0.3V184H608v-11.2h17.1v-19.2h14.8v19.2h20.6V184h-20.6 v47.4v0.3c0,8.6,4.4,11,11.8,11L660.8,242.7L660.8,242.7z"></path> <path class="st1" d="M739.7,201.7v0.3v51.9h-14.8v-16.6c-5.6,11.4-12.3,18.3-28,18.3c-15.1,0-27.2-11-27.2-26 c0-18.9,18.9-22.5,33.4-24.1l21.8-2.3v-1.4v-0.3c0-10.6-5.9-19.5-18.8-19.5c-11.3,0-17.7,7-18.8,14.7h-15.1 c1.8-15.3,14.8-25.6,33.9-25.6C730.8,171.1,739.7,186.5,739.7,201.7z M724.9,219.4v-6l-16.2,1.7c-11.2,1.2-23.9,2.7-23.9,14.5 c0,10.4,8.2,16.2,17.5,16.2C717.3,245.7,724.9,233.9,724.9,219.4z"></path> <path class="st1" d="M756.7,253.9v-115h14.8v115H756.7z"></path> </g> </svg> 